<svg viewBox="0 0 40 26" xmlns="http://www.w3.org/2000/svg"><g fill-rule="evenodd"><g fill="#1e398c"><path d="m2.5 9.74a.35.35 0 0 1 .37-.37h3.58a2 2 0 0 1 1.94 2.15v2a2.64 2.64 0 0 1 -.11.83 2 2 0 0 1 -2 1.5h-1.52v2.43c0 .18-.15.28-.34.28h-1.61a.31.31 0 0 1 -.34-.33v-8.48zm2.28 1.88h1a.4.4 0 0 1 .39.39v1.15a.39.39 0 0 1 -.39.39h-1z"/><path d="m10.15 9.38h2.5a2.13 2.13 0 0 1 2.24 2.45v5.9a.88.88 0 0 1 -.86.8h-3.28a1.88 1.88 0 0 1 -1.81-1.53 11.63 11.63 0 0 1 0-2.36 2.14 2.14 0 0 1 2-2.29h1.33c.39 0 .37-.87 0-.84h-2.09a.34.34 0 0 1 -.38-.33v-1.54c0-.2.16-.26.35-.26zm1.38 5.1h.76a.33.33 0 0 1 .33.33v1.33a.33.33 0 0 1 -.33.33h-.76a.33.33 0 0 1 -.33-.33v-1.33a.33.33 0 0 1 .33-.33z"/><path d="m15.65 9.8v3.72a2.29 2.29 0 0 0 2.28 2.05h1.07c.44 0 .41.73 0 .73h-2.29c-.25 0-.34.13-.34.35v1.64a.3.3 0 0 0 .31.29h2.11a2.44 2.44 0 0 0 2.77-2.75v-6.18a.25.25 0 0 0 -.25-.28h-1.77c-.17 0-.26.18-.26.31v3.39a.21.21 0 0 1 -.21.23h-.84a.27.27 0 0 1 -.3-.29v-3.27c0-.22-.09-.38-.33-.38h-1.7c-.2 0-.25.19-.25.44z"/></g><path d="m22.45 11.33v-1.61a.32.32 0 0 1 .32-.32h.39c1-.21 1.23-.79 1.84-1.45.38-.41.71-.52.95-.08v1.53h.92a.31.31 0 0 1 .31.32v1.61a.31.31 0 0 1 -.31.31h-.87v6.61a.31.31 0 0 1 -.31.31h-1.69a.31.31 0 0 1 -.32-.31v-6.61h-.94a.32.32 0 0 1 -.32-.31z" fill="#00adee"/><path d="m33.87 18.14a.39.39 0 0 1 -.39.39h-1.48a.39.39 0 0 1 -.4-.39v-6.06c0-.66-1.3-.76-1.3 0v6.06a.39.39 0 0 1 -.4.39h-1.54a.39.39 0 0 1 -.39-.39v-8.4a.4.4 0 0 1 .39-.4h1.51a.4.4 0 0 1 .4.4v.11a2.34 2.34 0 0 1 3.22.17c1.53-1.76 4.16-.19 4 1.73v6.39a.39.39 0 0 1 -.4.39h-1.49a.39.39 0 0 1 -.39-.39v-6c-.09-.84-1.36-.64-1.35 0v6z" fill="#00adee"/></g></svg>